HIERARCHY
ROOT hip
{
  OFFSET 0 0 0
  CHANNELS 6 Xposition Yposition Zposition Zrotation Yrotation Xrotation
  JOINT abdomen
  {
    OFFSET 0 20.6881 -0.73152
    CHANNELS 3 Zrotation Xrotation Yrotation
    JOINT chest
    {
      OFFSET 0 11.7043 -0.48768
      CHANNELS 3 Zrotation Xrotation Yrotation
      JOINT neck
      {
        OFFSET 0 22.1894 -2.19456
        CHANNELS 3 Zrotation Xrotation Yrotation
        JOINT head
        {
          OFFSET -0.24384 7.07133 1.2192
          CHANNELS 3 Zrotation Xrotation Yrotation
          JOINT leftEye
          {
            OFFSET 4.14528 8.04674 8.04672
            CHANNELS 3 Zrotation Xrotation Yrotation
            End Site
            {
              OFFSET 1 0 0
            }
          }
          JOINT rightEye
          {
            OFFSET -3.6576 8.04674 8.04672
            CHANNELS 3 Zrotation Xrotation Yrotation
            End Site
            {
              OFFSET 1 0 0
            }
          }
        }
      }
      JOINT rCollar
      {
        OFFSET -2.68224 19.2634 -4.8768
        CHANNELS 3 Zrotation Xrotation Yrotation
        JOINT rShldr
        {
          OFFSET -8.77824 -1.95073 1.46304
          CHANNELS 3 Zrotation Xrotation Yrotation
          JOINT rForeArm
          {
            OFFSET -28.1742 -1.7115 0.48768
            CHANNELS 3 Zrotation Xrotation Yrotation
            JOINT rHand
            {
              OFFSET -22.5879 0.773209 7.07136
              CHANNELS 3 Zrotation Xrotation Yrotation
              JOINT rThumb1
              {
                OFFSET -1.2192 -0.487915 3.41376
                CHANNELS 3 Zrotation Xrotation Yrotation
                JOINT rThumb2
                {
                  OFFSET -3.37035 -0.52449 3.41376
                  CHANNELS 3 Zrotation Xrotation Yrotation
                  End Site
                  {
                    OFFSET -1.78271 -1.18214 1.43049
                  }
                }
              }
              JOINT rIndex1
              {
                OFFSET -7.75947 0.938293 5.60832
                CHANNELS 3 Zrotation Xrotation Yrotation
                JOINT rIndex2
                {
                  OFFSET -2.54057 -0.884171 1.56538
                  CHANNELS 3 Zrotation Xrotation Yrotation
                  End Site
                  {
                    OFFSET -1.62519 -0.234802 1.16502
                  }
                }
              }
              JOINT rMid1
              {
                OFFSET -8.24714 1.18213 3.41376
                CHANNELS 3 Zrotation Xrotation Yrotation
                JOINT rMid2
                {
                  OFFSET -3.10165 -0.590103 1.0647
                  CHANNELS 3 Zrotation Xrotation Yrotation
                  End Site
                  {
                    OFFSET -2.48547 -0.328903 0.83742
                  }
                }
              }
              JOINT rRing1
              {
                OFFSET -8.82822 0.546677 1.51678
                CHANNELS 3 Zrotation Xrotation Yrotation
                JOINT rRing2
                {
                  OFFSET -2.60934 -0.819778 -0.0198488
                  CHANNELS 3 Zrotation Xrotation Yrotation
                  End Site
                  {
                    OFFSET -2.33842 -0.294052 0.168128
                  }
                }
              }
              JOINT rPinky1
              {
                OFFSET -8.27202 -0.0477905 -0.4584
                CHANNELS 3 Zrotation Xrotation Yrotation
                JOINT rPinky2
                {
                  OFFSET -1.82734 -0.647385 -0.700984
                  CHANNELS 3 Zrotation Xrotation Yrotation
                  End Site
                  {
                    OFFSET -1.69225 -0.51767 -0.607171
                  }
                }
              }
            }
          }
        }
      }
      JOINT lCollar
      {
        OFFSET 2.68224 19.2634 -4.8768
        CHANNELS 3 Zrotation Xrotation Yrotation
        JOINT lShldr
        {
          OFFSET 8.77824 -1.95073 1.46304
          CHANNELS 3 Zrotation Xrotation Yrotation
          JOINT lForeArm
          {
            OFFSET 28.1742 -1.7115 0.48768
            CHANNELS 3 Zrotation Xrotation Yrotation
            JOINT lHand
            {
              OFFSET 22.5879 0.773209 7.07136
              CHANNELS 3 Zrotation Xrotation Yrotation
              JOINT lThumb1
              {
                OFFSET 1.2192 -0.487915 3.41376
                CHANNELS 3 Zrotation Xrotation Yrotation
                JOINT lThumb2
                {
                  OFFSET 3.37035 -0.52449 3.41376
                  CHANNELS 3 Zrotation Xrotation Yrotation
                  End Site
                  {
                    OFFSET 1.78271 -1.18214 1.43049
                  }
                }
              }
              JOINT lIndex1
              {
                OFFSET 7.75947 0.938293 5.60832
                CHANNELS 3 Zrotation Xrotation Yrotation
                JOINT lIndex2
                {
                  OFFSET 2.54057 -0.884171 1.56538
                  CHANNELS 3 Zrotation Xrotation Yrotation
                  End Site
                  {
                    OFFSET 1.62519 -0.234802 1.16502
                  }
                }
              }
              JOINT lMid1
              {
                OFFSET 8.24714 1.18213 3.41376
                CHANNELS 3 Zrotation Xrotation Yrotation
                JOINT lMid2
                {
                  OFFSET 3.10165 -0.590103 1.0647
                  CHANNELS 3 Zrotation Xrotation Yrotation
                  End Site
                  {
                    OFFSET 2.48547 -0.328903 0.83742
                  }
                }
              }
              JOINT lRing1
              {
                OFFSET 8.82822 0.546677 1.51678
                CHANNELS 3 Zrotation Xrotation Yrotation
                JOINT lRing2
                {
                  OFFSET 2.60934 -0.819778 -0.0198488
                  CHANNELS 3 Zrotation Xrotation Yrotation
                  End Site
                  {
                    OFFSET 2.33842 -0.294052 0.168128
                  }
                }
              }
              JOINT lPinky1
              {
                OFFSET 8.27202 -0.0477905 -0.4584
                CHANNELS 3 Zrotation Xrotation Yrotation
                JOINT lPinky2
                {
                  OFFSET 1.82734 -0.647385 -0.700984
                  CHANNELS 3 Zrotation Xrotation Yrotation
                  End Site
                  {
                    OFFSET 1.69225 -0.51767 -0.607171
                  }
                }
              }
            }
          }
        }
      }
    }
  }
  JOINT rButtock
  {
    OFFSET -8.77824 4.35084 1.2192
    CHANNELS 3 Zrotation Xrotation Yrotation
    JOINT rThigh
    {
      OFFSET 0 -1.70687 -2.19456
      CHANNELS 3 Zrotation Xrotation Yrotation
      JOINT rShin
      {
        OFFSET 0 -36.8199 0.73152
        CHANNELS 3 Zrotation Xrotation Yrotation
        JOINT rFoot
        {
          OFFSET 0.73152 -45.1104 -5.12064
          CHANNELS 3 Zrotation Xrotation Yrotation
          End Site
          {
            OFFSET -1.1221 -3.69964 12.103
          }
        }
      }
    }
  }
  JOINT lButtock
  {
    OFFSET 8.77824 4.35084 1.2192
    CHANNELS 3 Zrotation Xrotation Yrotation
    JOINT lThigh
    {
      OFFSET 0 -1.70687 -2.19456
      CHANNELS 3 Zrotation Xrotation Yrotation
      JOINT lShin
      {
        OFFSET 0 -36.8199 0.73152
        CHANNELS 3 Zrotation Xrotation Yrotation
        JOINT lFoot
        {
          OFFSET -0.73152 -45.1104 -5.12064
          CHANNELS 3 Zrotation Xrotation Yrotation
          End Site
          {
            OFFSET 1.1221 -3.69964 12.103
          }
        }
      }
    }
  }
}
MOTION
Frames:	4
Frame Time:	0.03333
0.04843510687351227 51.46622657775879 0.26278961449861526 -2.1801586151123047 2.840712547302246 5.844423294067383 -1.9509929418563843 14.029149055480957 3.4641928672790527 2.969939708709717 -9.285783767700195 1.215590238571167 -5.591546058654785 14.473694801330566 -5.01747989654541 8.294401168823242 -24.641542434692383 -7.383632183074951 0.06870713829994202 -0.0916185975074768 -0.15840104222297668 0.04039503633975983 0.08053215593099594 0.008988499641418457 0.06060224771499634 0.04080934077501297 -0.006960038095712662 50.86784744262695 39.17029571533203 12.269254684448242 -27.76441192626953 -31.999937057495117 70.69853210449219 -0.10585321485996246 1.4253551959991455 0.36592596769332886 -0.08807962387800217 -0.010208341293036938 0.028387999162077904 0.1351887732744217 0.00988454557955265 -0.02997143566608429 -0.0370885506272316 0.022882826626300812 0.017086980864405632 7.814091205596924 5.456307888031006 0.39606109261512756 -0.0018987590447068214 -0.03876037150621414 -0.024130651727318764 2.8825926780700684 0.9941515326499939 0.1334122121334076 -0.016237560659646988 0.014527943916618824 -0.059546589851379395 10.249897956848145 0.5634810924530029 0.046332553029060364 0.04370969906449318 -0.030164144933223724 -0.0377778559923172 2.2397565841674805 -0.7946310639381409 -0.17127862572669983 -0.056304994970560074 -0.06349204480648041 -0.037122149020433426 -58.51847457885742 38.746726989746094 -22.904720306396484 28.130952835083008 -33.679752349853516 -73.59147644042969 0.4398123323917389 -18.734039306640625 2.9221251010894775 -0.020485416054725647 -0.04227343946695328 0.005609184969216585 -0.06220196187496185 0.03856637328863144 0.06633611768484116 0.03733975440263748 -0.06537159532308578 -0.006128585897386074 -7.768889904022217 5.429833889007568 -0.39891499280929565 0.05898789316415787 -0.012109867297112942 -0.08743512630462646 -2.9174444675445557 0.9402914047241211 -0.09334908425807953 0.09478692710399628 -0.008572463877499104 0.03536088764667511 -10.295245170593262 0.8236162066459656 0.05571774020791054 0.045496098697185516 -0.05197189748287201 -0.00965540949255228 -2.172041177749634 -0.687649130821228 0.18055881559848785 0.048742108047008514 0.010305196978151798 0.012466147541999817 -27.765018463134766 -45.512081146240234 -24.129043579101562 -1.8715074062347412 66.8725814819336 2.476936101913452 -4.152451038360596 -12.789641380310059 -11.07963752746582 -0.013373548164963722 -0.03738316148519516 0.01258555892854929 33.44828796386719 -43.906761169433594 26.470870971679688 1.4384844303131104 69.80313110351562 -2.2095162868499756 4.889951229095459 -11.95374584197998 14.984170913696289
0.047716591507196426 63.538140058517456 0.3352121450006962 -1.7065811157226562 4.220422267913818 6.344249248504639 -1.517883539199829 14.371691703796387 3.185734987258911 2.911343812942505 -9.297467231750488 1.2971378564834595 -5.665472984313965 14.688321113586426 -5.2763142585754395 8.344977378845215 -24.65477752685547 -8.218199729919434 0.026943417266011238 0.009743097238242626 -0.10667452961206436 0.07892677932977676 0.10274593532085419 -0.03524091839790344 0.01680113933980465 0.04864009842276573 -0.008110040798783302 51.9987907409668 39.71311569213867 11.721172332763672 -27.141386032104492 -31.6923885345459 70.35789489746094 -0.05657744035124779 0.011001885868608952 0.5896700620651245 -0.09161922335624695 0.10063162446022034 0.009610890410840511 0.042631957679986954 0.0002021188265644014 0.01986232027411461 -0.08241751044988632 -0.08206870406866074 0.02827247604727745 7.789473533630371 5.3861870765686035 0.438173770904541 -0.05843307450413704 -0.026021959260106087 -0.003637750633060932 2.9528069496154785 0.8889308571815491 0.13275699317455292 0.06594717502593994 0.07518680393695831 0.02434825338423252 10.282394409179688 0.532854437828064 0.06601496040821075 -0.0014897078508511186 -0.02352895587682724 -0.004917825572192669 2.182133913040161 -0.779784083366394 -0.1234922856092453 0.0216551311314106 0.009258312173187733 -0.08543828129768372 -60.25151443481445 39.235130310058594 -21.886356353759766 27.81471061706543 -32.82683181762695 -72.72697448730469 0.14451107382774353 -17.597782135009766 2.8993639945983887 0.017778806388378143 0.002638207981362939 0.004664922598749399 -0.03591049090027809 0.03914836794137955 -0.006426609121263027 0.08490844815969467 -0.09058097004890442 0.025493092834949493 -7.728662014007568 5.471340179443359 -0.33077341318130493 -0.030808961018919945 0.02638307213783264 -0.014658776111900806 -2.9369428157806396 0.9916859865188599 -0.053469620645046234 0.07649997621774673 -0.06674060225486755 -0.02508598379790783 -10.366618156433105 0.8392354846000671 0.06290436536073685 -0.002609947696328163 0.010763459838926792 0.005813348572701216 -2.170595169067383 -0.692834734916687 0.2532525956630707 0.02893793396651745 0.07624056190252304 0.06665409356355667 -24.563486099243164 -44.633079528808594 -21.550552368164062 -2.2949581146240234 66.3056640625 2.723153591156006 -4.05057430267334 -13.35794734954834 -10.31015396118164 -0.000310297793475911 -0.008840731345117092 0.04771863669157028 32.50014877319336 -43.04935073852539 25.23558807373047 1.1334930658340454 69.68216705322266 -2.103595495223999 5.273314476013184 -11.620628356933594 15.508888244628906
0.06794091314077377 65.84740281105042 0.32487474381923676 -12.442719459533691 -26.8580379486084 3.991297721862793 3.836879014968872 12.364877700805664 3.723599672317505 0.8635354042053223 -8.515398979187012 0.9946945309638977 -0.5875778198242188 11.247125625610352 6.28220272064209 4.876465797424316 -21.68658447265625 14.122971534729004 0.07896361500024796 -0.1049741804599762 -0.013502114452421665 -0.03352489694952965 0.05651271715760231 0.04195551574230194 -0.015429433435201645 0.0025664407294243574 -0.09999602288007736 107.565185546875 47.69268035888672 -52.99693298339844 -26.960651397705078 -43.15289306640625 89.76823425292969 -8.595305442810059 -60.471473693847656 -14.271472930908203 -0.007003814913332462 0.050095997750759125 -0.037318501621484756 0.02976418286561966 -0.08470994979143143 -0.047598276287317276 -0.06902940571308136 0.048486627638339996 0.10109711438417435 7.722917079925537 5.483525276184082 0.45264190435409546 0.04764057323336601 -0.006307200063019991 0.04807295277714729 2.8730077743530273 0.9762618541717529 0.08952467143535614 0.016184881329536438 -0.02090008370578289 0.00868315901607275 10.41460132598877 0.6566462516784668 0.011319039389491081 -0.02372627891600132 -0.09485452622175217 -0.012161304242908955 2.304457426071167 -0.7074328064918518 -0.3307117223739624 -0.043987005949020386 -0.02547099068760872 0.04937349259853363 -62.56301498413086 -20.317914962768555 -77.25532531738281 7.163474082946777 -2.749098777770996 -13.384092330932617 5.427147388458252 52.9925651550293 -10.86556625366211 0.013223649933934212 -0.126504048705101 0.1261950582265854 -0.14217251539230347 0.005485636182129383 0.04133566841483116 0.0627816766500473 0.020933032035827637 -0.01440731342881918 -7.825588703155518 5.546815872192383 -0.3923346698284149 -0.02664295770227909 0.0548686757683754 0.0004920363426208496 -2.898188591003418 1.1292049884796143 -0.0050727734342217445 -0.053176894783973694 -0.08264835923910141 -0.05280056223273277 -10.259434700012207 0.688590407371521 -0.02716222032904625 0.034149687737226486 -0.08807472139596939 0.01242663711309433 -2.222182512283325 -0.803561806678772 0.12819835543632507 0.024585703387856483 0.07399062067270279 0.056390102952718735 -7.951736927032471 -5.527429580688477 -2.267878293991089 -1.1688990592956543 55.213951110839844 2.874324083328247 -13.262613296508789 -22.59872055053711 -32.47782516479492 0.0626964122056961 -0.0075444006361067295 0.06690037995576859 44.09761428833008 -47.42936706542969 22.860898971557617 1.02394700050354 40.427303314208984 -0.07153802365064621 -3.139251947402954 23.35488510131836 -0.9868680238723755
0.07423423230648041 62.19707131385803 0.3117355518043041 -11.932517051696777 -27.972984313964844 4.415191173553467 3.5812132358551025 13.042461395263672 3.896629571914673 0.6713408827781677 -8.085184097290039 1.025126576423645 -0.771187961101532 11.458565711975098 6.303929805755615 5.471031665802002 -21.34680938720703 13.501233100891113 0.06941267848014832 -0.04768267646431923 -0.06842575967311859 0.013839466497302055 -0.039010483771562576 0.027787121012806892 -0.007714271079748869 -0.0800035372376442 -0.051723912358284 106.59754943847656 46.12815475463867 -53.2951774597168 -26.73240089416504 -44.10137176513672 91.80210876464844 -8.372692108154297 -60.45737075805664 -14.113092422485352 -0.049152303487062454 0.03928922489285469 -0.04742575064301491 -0.01255519688129425 -0.0003628357080742717 -0.07167968153953552 -0.08724476397037506 0.06724948436021805 0.055161576718091965 7.729936599731445 5.471737384796143 0.47177204489707947 0.06309311836957932 -0.028018224984407425 0.02714753895998001 2.9122347831726074 0.9965794682502747 0.10099239647388458 0.054024260491132736 -0.02856118232011795 -0.021244583651423454 10.3720703125 0.693475067615509 0.09258405864238739 -0.008862669579684734 -0.015252568759024143 0.0007277171825990081 2.2689194679260254 -0.7465293407440186 -0.3376063108444214 0.03876005858182907 0.016839969903230667 -0.01662183552980423 -63.369388580322266 -21.26251983642578 -78.01692962646484 6.724153518676758 -2.6068007946014404 -12.113265037536621 6.432761192321777 55.91250228881836 -12.05172061920166 -0.02378133498132229 -0.07600276917219162 0.13632623851299286 -0.13924729824066162 -0.0030385595746338367 -0.015184084884822369 -0.003717877669259906 0.024996111169457436 -0.0414205864071846 -7.8295464515686035 5.5334391593933105 -0.41220787167549133 0.015088392421603203 0.08007833361625671 -0.032645370811223984 -2.9078609943389893 1.1303091049194336 -0.032592736184597015 0.04937827214598656 -0.06776002794504166 -0.0009263857500627637 -10.299548149108887 0.7413853406906128 -0.07249271124601364 0.015769824385643005 -0.11959313601255417 -0.07463980466127396 -2.2082173824310303 -0.771801769733429 0.12630385160446167 0.034199126064777374 0.061956316232681274 -0.0007278681150637567 -9.659881591796875 -5.316898822784424 -1.8681755065917969 -0.7620494961738586 55.87276840209961 2.67360520362854 -13.338565826416016 -22.31443977355957 -32.69640350341797 0.05574678257107735 -0.1272774487733841 0.04577445611357689 46.9000244140625 -49.439552307128906 25.137182235717773 0.9474039077758789 38.68194580078125 0.08567246794700623 -3.277669906616211 24.190088272094727 -1.6039948463439941
